<?xml version="1.0" encoding="UTF-8"?>
<svg width="50px" height="50px" viewBox="0 0 50 50" version="1.1" xmlns="http://www.w3.org/2000/svg">
  <g fill="#e61a1a">
    <path d="M42,6H8C6.346,6,5,7.346,5,9v32c0,1.654,1.346,3,3,3h34c1.654,0,3-1.346,3-3V9C45,7.346,43.654,6,42,6z M43,41
      c0,0.551-0.449,1-1,1H8c-0.551,0-1-0.449-1-1V9c0-0.551,0.449-1,1-1h34c0.551,0,1,0.449,1,1V41z M12,13v3c0,0.552,0.448,1,1,1h3
      c0.552,0,1-0.448,1-1v-3c0-0.552-0.448-1-1-1h-3C12.448,12,12,12.448,12,13z M12,21v3c0,0.552,0.448,1,1,1h3c0.552,0,1-0.448,1-1
      v-3c0-0.552-0.448-1-1-1h-3C12.448,20,12,20.448,12,21z M12,29v3c0,0.552,0.448,1,1,1h3c0.552,0,1-0.448,1-1v-3
      c0-0.552-0.448-1-1-1h-3C12.448,28,12,28.448,12,29z M12,37v3c0,0.552,0.448,1,1,1h3c0.552,0,1-0.448,1-1v-3
      c0-0.552-0.448-1-1-1h-3C12.448,36,12,36.448,12,37z M23,13v3c0,0.552,0.448,1,1,1h3c0.552,0,1-0.448,1-1v-3
      c0-0.552-0.448-1-1-1h-3C23.448,12,23,12.448,23,13z M23,21v3c0,0.552,0.448,1,1,1h3c0.552,0,1-0.448,1-1v-3
      c0-0.552-0.448-1-1-1h-3C23.448,20,23,20.448,23,21z M23,29v3c0,0.552,0.448,1,1,1h3c0.552,0,1-0.448,1-1v-3
      c0-0.552-0.448-1-1-1h-3C23.448,28,23,28.448,23,29z M23,37v3c0,0.552,0.448,1,1,1h3c0.552,0,1-0.448,1-1v-3
      c0-0.552-0.448-1-1-1h-3C23.448,36,23,36.448,23,37z M34,13v3c0,0.552,0.448,1,1,1h3c0.552,0,1-0.448,1-1v-3
      c0-0.552-0.448-1-1-1h-3C34.448,12,34,12.448,34,13z M34,21v3c0,0.552,0.448,1,1,1h3c0.552,0,1-0.448,1-1v-3
      c0-0.552-0.448-1-1-1h-3C34.448,20,34,20.448,34,21z M34,29v3c0,0.552,0.448,1,1,1h3c0.552,0,1-0.448,1-1v-3
      c0-0.552-0.448-1-1-1h-3C34.448,28,34,28.448,34,29z M34,37v3c0,0.552,0.448,1,1,1h3c0.552,0,1-0.448,1-1v-3
      c0-0.552-0.448-1-1-1h-3C34.448,36,34,36.448,34,37z"/>
  </g>
</svg>