<?xml version="1.0" encoding="UTF-8"?>
<svg width="50px" height="50px" viewBox="0 0 50 50" version="1.1" xmlns="http://www.w3.org/2000/svg">
  <g fill="#e61a1a">
    <path d="M38,2H12c-1.654,0-3,1.346-3,3v40c0,1.654,1.346,3,3,3h26c1.654,0,3-1.346,3-3V5C41,3.346,39.654,2,38,2z M38,45
      c0,0.551-0.449,1-1,1H13c-0.551,0-1-0.449-1-1V5c0-0.551,0.449-1,1-1h24c0.551,0,1,0.449,1,1V45z M34,10H16c-0.553,0-1,0.448-1,1
      s0.447,1,1,1h18c0.553,0,1-0.448,1-1S34.553,10,34,10z M34,16H16c-0.553,0-1,0.448-1,1s0.447,1,1,1h18c0.553,0,1-0.448,1-1
      S34.553,16,34,16z M34,22H16c-0.553,0-1,0.448-1,1s0.447,1,1,1h18c0.553,0,1-0.448,1-1S34.553,22,34,22z M34,28H16
      c-0.553,0-1,0.448-1,1s0.447,1,1,1h18c0.553,0,1-0.448,1-1S34.553,28,34,28z M29,37c0-2.206-1.794-4-4-4s-4,1.794-4,4
      s1.794,4,4,4S29,39.206,29,37z M25,39c-1.103,0-2-0.897-2-2s0.897-2,2-2s2,0.897,2,2S26.103,39,25,39z"/>
  </g>
</svg>