<?xml version="1.0" encoding="UTF-8"?>
<svg width="50px" height="50px" viewBox="0 0 50 50" version="1.1" xmlns="http://www.w3.org/2000/svg">
  <g fill="#e61a1a">
    <path d="M48,35c0-0.553-0.447-1-1-1h-3.184c-0.414-1.161-1.514-2-2.816-2h-1c-0.553,0-1,0.447-1,1v0.184
      c-0.314,0.111-0.612,0.262-0.894,0.447l-0.789-0.789c-0.391-0.391-1.023-0.391-1.414,0l-1.414,1.414
      c-0.391,0.391-0.391,1.023,0,1.414l0.789,0.789C35.165,36.742,35.003,37.1,35,37.5V38H23v-8h4c1.654,0,3-1.346,3-3v-1
      c1.654,0,3-1.346,3-3V9c0-1.654-1.346-3-3-3h-9c-1.654,0-3,1.346-3,3v14c0,1.654,1.346,3,3,3h1v1c0,1.654,1.346,3,3,3h4v8H5
      c-1.654,0-3,1.346-3,3v3c0,1.654,1.346,3,3,3h39c0.553,0,1-0.447,1-1v-3.184c1.161-0.414,2-1.514,2-2.816v-1
      c0-0.553-0.447-1-1-1h-0.184c-0.111-0.314-0.262-0.612-0.447-0.894l0.789-0.789c0.391-0.391,0.391-1.023,0-1.414l-1.414-1.414
      c-0.391-0.391-1.023-0.391-1.414,0l-0.789,0.789C42.258,35.835,41.9,35.674,41.5,35.671V35H41c-1.302,0-2.402,0.839-2.816,2H35
      c-0.553,0-1,0.447-1,1s0.447,1,1,1h3.184c0.414,1.161,1.514,2,2.816,2H41c0.553,0,1-0.447,1-1v-0.184
      c0.314-0.111,0.612-0.262,0.894-0.447l0.789,0.789c0.391,0.391,1.023,0.391,1.414,0l1.414-1.414c0.391-0.391,0.391-1.023,0-1.414
      l-0.789-0.789c0.185-0.282,0.336-0.58,0.447-0.894H47c0.553,0,1-0.447,1-1v-1z M20,9c0-0.551,0.449-1,1-1h9c0.551,0,1,0.449,1,1
      v10H20V9z M21,24v-1h9v1c0,0.551-0.449,1-1,1h-7C21.449,25,21,24.551,21,24z M18,21V9c0-0.551,0.449-1,1-1s1,0.449,1,1v12
      c0,0.551-0.449,1-1,1S18,21.551,18,21z M31,21c0,0.551-0.449,1-1,1s-1-0.449-1-1V9c0-0.551,0.449-1,1-1s1,0.449,1,1V21z"/>
  </g>
</svg>