<?xml version="1.0" encoding="UTF-8"?>
<svg width="50px" height="50px" viewBox="0 0 50 50" version="1.1" xmlns="http://www.w3.org/2000/svg">
  <g fill="#e61a1a">
    <path d="M25,2c-5.514,0-10,4.486-10,10c0,6.192,5.636,11.888,9.222,19.123c0.347,0.702,1.211,0.699,1.557,0
      C29.364,23.887,35,18.192,35,12C35,6.486,30.514,2,25,2z M25,17c-2.757,0-5-2.243-5-5s2.243-5,5-5s5,2.243,5,5S27.757,17,25,17z
      M39.422,32.295l-5.304-1.326C30.291,30.391,25.498,40.295,25,41c-0.499-0.705-5.291-10.609-9.118-10.031l-5.304,1.326
      C7.051,32.908,5,36.171,5,39.735V48h40v-8.265C45,36.171,42.949,32.908,39.422,32.295z"/>
  </g>
</svg>