<?xml version="1.0" encoding="UTF-8"?>
<svg width="50px" height="50px" viewBox="0 0 50 50" version="1.1" xmlns="http://www.w3.org/2000/svg">
  <g fill="#e61a1a">
    <path d="M42,32H8c-1.654,0-3,1.346-3,3v10c0,1.654,1.346,3,3,3h34c1.654,0,3-1.346,3-3V35C45,33.346,43.654,32,42,32z M8,34h34
      c0.551,0,1,0.449,1,1v3H7v-3C7,34.449,7.449,34,8,34z M42,46H8c-0.551,0-1-0.449-1-1v-5h36v5C43,45.551,42.551,46,42,46z M42,2
      H8C6.346,2,5,3.346,5,5v10c0,1.654,1.346,3,3,3h34c1.654,0,3-1.346,3-3V5C45,3.346,43.654,2,42,2z M8,4h34c0.551,0,1,0.449,1,1
      v3H7V5C7,4.449,7.449,4,8,4z M42,16H8c-0.551,0-1-0.449-1-1v-5h36v5C43,15.551,42.551,16,42,16z M42,17H8c-1.654,0-3,1.346-3,3
      v10c0,1.654,1.346,3,3,3h34c1.654,0,3-1.346,3-3V20C45,18.346,43.654,17,42,17z M8,19h34c0.551,0,1,0.449,1,1v3H7v-3
      C7,19.449,7.449,19,8,19z M42,31H8c-0.551,0-1-0.449-1-1v-5h36v5C43,30.551,42.551,31,42,31z"/>
  </g>
</svg>