<?xml version="1.0" encoding="UTF-8"?>
<svg width="50px" height="50px" viewBox="0 0 50 50" version="1.1" xmlns="http://www.w3.org/2000/svg">
  <g fill="#e61a1a">
    <path d="M25,2C18.979,2,13.016,3.416,8.293,6.199C8.111,6.312,8,6.512,8,6.727v13.818
      c0,7.545,3.473,14.308,8.82,18.88c2.68,2.287,5.742,4.155,9.026,5.432c0.1,0.039,0.209,0.039,0.309,0
      c3.284-1.277,6.346-3.145,9.025-5.432C40.527,34.854,44,28.091,44,20.545V6.727c0-0.214-0.111-0.415-0.293-0.527
      C36.984,3.416,31.021,2,25,2z M41,20.545c0,6.628-3.046,12.584-7.802,16.67c-2.432,2.074-5.203,3.782-8.198,4.969
      c-2.994-1.187-5.766-2.895-8.198-4.969C12.046,33.13,9,27.174,9,20.545V7.442c4.274-2.396,9.649-3.651,15.145-3.651
      c5.605,0,11.019,1.32,15.354,3.807L41,7.442V20.545z M25,10c-6.065,0-11,4.935-11,11s4.935,11,11,11s11-4.935,11-11
      S31.065,10,25,10z M25,29c-4.411,0-8-3.589-8-8s3.589-8,8-8s8,3.589,8,8S29.411,29,25,29z"/>
  </g>
</svg>