<?xml version="1.0" encoding="UTF-8"?>
<svg width="50px" height="50px" viewBox="0 0 50 50" version="1.1" xmlns="http://www.w3.org/2000/svg">
  <g fill="#e61a1a">
    <path d="M45,30h-3v-8.5c0-0.78-0.304-1.518-0.848-2.064L32.414,10.7c-0.566-0.565-1.326-0.873-2.121-0.873
      h-5.293V8c0-1.654-1.346-3-3-3H5C3.346,5,2,6.346,2,8v22c0,1.654,1.346,3,3,3h2.184C7.5,35.973,10.203,38,13.5,38
      c3.297,0,5.996-2.027,7.316-5h8.367c1.321,2.973,4.017,5,7.317,5c3.297,0,6-2.027,7.316-5H45c1.654,0,3-1.346,3-3v-2
      C48,31.346,46.654,30,45,30z M30.293,13.827h0.001l5.853,5.853c0.565,0.566,0.873,1.32,0.873,2.121V24h-10v-13h1.165
      C29.01,11,29.762,11.299,30.293,13.827z M13.5,34c-1.93,0-3.5-1.57-3.5-3.5S11.57,27,13.5,27s3.5,1.57,3.5,3.5S15.43,34,13.5,34z
      M36.5,34c-1.93,0-3.5-1.57-3.5-3.5s1.57-3.5,3.5-3.5s3.5,1.57,3.5,3.5S38.43,34,36.5,34z M45,33h-0.184
      c-0.414-1.161-1.105-2.172-2-2.883V30h2c0.551,0,1,0.448,1,1V33z"/>
  </g>
</svg>